<svg xmlns="http://www.w3.org/2000/svg" width="980" height="560" viewBox="0 0 980 560">
<rect width="100%" height="100%" fill="#0f172a"/>
<text x="50" y="56" fill="#f8fafc" font-family="Segoe UI, Arial, sans-serif" font-size="28" font-weight="700">dataset_v2 distribution</text>
<text x="50" y="88" fill="#cbd5e1" font-family="Segoe UI, Arial, sans-serif" font-size="16">Image split composition by source. Label-file counts are used as positive samples; the remainder are negative / empty frames.</text>
<text x="50" y="120" fill="#e2e8f0" font-family="Segoe UI, Arial, sans-serif" font-size="16">Total images: 34,915  |  Positive labels: 27,695  |  Negative frames: 7,220</text>
<rect x="50" y="150" width="18" height="18" rx="4" fill="#d97706"/>
<text x="78" y="164" fill="#e2e8f0" font-family="Segoe UI, Arial, sans-serif" font-size="15">real</text>
<rect x="230" y="150" width="18" height="18" rx="4" fill="#dc2626"/>
<text x="258" y="164" fill="#e2e8f0" font-family="Segoe UI, Arial, sans-serif" font-size="15">synthetic GAN</text>
<rect x="410" y="150" width="18" height="18" rx="4" fill="#2563eb"/>
<text x="438" y="164" fill="#e2e8f0" font-family="Segoe UI, Arial, sans-serif" font-size="15">synthetic Laplacian</text>
<text x="50" y="198" fill="#f8fafc" font-family="Segoe UI, Arial, sans-serif" font-size="24" font-weight="700">train</text>
<rect x="180" y="170" width="620" height="42" rx="10" fill="#1e293b"/>
<rect x="180.00" y="170" width="93.61" height="42" rx="10" fill="#d97706"/>
<text x="226.80" y="197" text-anchor="middle" fill="#ffffff" font-family="Segoe UI, Arial, sans-serif" font-size="14" font-weight="600">4,503</text>
<rect x="273.61" y="170" width="20.79" height="42" rx="10" fill="#dc2626"/>
<rect x="294.40" y="170" width="505.60" height="42" rx="10" fill="#2563eb"/>
<text x="547.20" y="197" text-anchor="middle" fill="#ffffff" font-family="Segoe UI, Arial, sans-serif" font-size="14" font-weight="600">24,322</text>
<text x="818" y="197" fill="#f8fafc" font-family="Segoe UI, Arial, sans-serif" font-size="16" font-weight="600">29,825 images</text>
<text x="180" y="244" fill="#cbd5e1" font-family="Segoe UI, Arial, sans-serif" font-size="15">positive labels: 24,078  |  negatives: 5,747  |  positive ratio: 80.7%</text>
<text x="50" y="318" fill="#f8fafc" font-family="Segoe UI, Arial, sans-serif" font-size="24" font-weight="700">val</text>
<rect x="180" y="290" width="620" height="42" rx="10" fill="#1e293b"/>
<rect x="180.00" y="290" width="2.33" height="42" rx="10" fill="#d97706"/>
<rect x="182.33" y="290" width="50.56" height="42" rx="10" fill="#2563eb"/>
<text x="818" y="317" fill="#f8fafc" font-family="Segoe UI, Arial, sans-serif" font-size="16" font-weight="600">2,544 images</text>
<text x="180" y="364" fill="#cbd5e1" font-family="Segoe UI, Arial, sans-serif" font-size="15">positive labels: 1,810  |  negatives: 734  |  positive ratio: 71.1%</text>
<text x="50" y="438" fill="#f8fafc" font-family="Segoe UI, Arial, sans-serif" font-size="24" font-weight="700">test</text>
<rect x="180" y="410" width="620" height="42" rx="10" fill="#1e293b"/>
<rect x="180.00" y="410" width="2.35" height="42" rx="10" fill="#d97706"/>
<rect x="182.35" y="410" width="50.58" height="42" rx="10" fill="#2563eb"/>
<text x="818" y="437" fill="#f8fafc" font-family="Segoe UI, Arial, sans-serif" font-size="16" font-weight="600">2,546 images</text>
<text x="180" y="484" fill="#cbd5e1" font-family="Segoe UI, Arial, sans-serif" font-size="15">positive labels: 1,807  |  negatives: 739  |  positive ratio: 71.0%</text>
<text x="50" y="520" fill="#94a3b8" font-family="Segoe UI, Arial, sans-serif" font-size="13">Generated from local folder counts in dataset_v2 on 2026-04-07.</text>
</svg>